<svg width="69" height="69" viewBox="0 0 69 69" fill="none" xmlns="http://www.w3.org/2000/svg">
<path d="M34.5 60.375C31.102 60.375 27.7374 59.7057 24.5981 58.4054C21.4588 57.105 18.6063 55.1991 16.2036 52.7964C13.8009 50.3937 11.895 47.5412 10.5946 44.4019C9.29428 41.2626 8.625 37.898 8.625 34.5C8.625 31.102 9.29428 27.7374 10.5946 24.5981C11.895 21.4588 13.8009 18.6063 16.2036 16.2036C18.6063 13.8009 21.4588 11.895 24.5981 10.5946C27.7374 9.29428 31.1021 8.625 34.5 8.625C37.898 8.625 41.2626 9.29428 44.4019 10.5946C47.5412 11.895 50.3937 13.8009 52.7964 16.2036C55.1991 18.6063 57.105 21.4588 58.4054 24.5981C59.7057 27.7374 60.375 31.1021 60.375 34.5C60.375 37.898 59.7057 41.2626 58.4054 44.4019C57.105 47.5412 55.1991 50.3937 52.7964 52.7964C50.3937 55.1991 47.5412 57.105 44.4019 58.4054C41.2626 59.7057 37.8979 60.375 34.5 60.375L34.5 60.375Z" stroke="#33363F" stroke-width="2" stroke-linecap="round"/>
<path d="M25.875 25.875L43.125 43.125" stroke="#33363F" stroke-width="2" stroke-linecap="round"/>
<path d="M43.125 25.875L25.875 43.125" stroke="#33363F" stroke-width="2" stroke-linecap="round"/>
</svg>
