<svg width="970" height="348" viewBox="0 0 970 348" fill="none" xmlns="http://www.w3.org/2000/svg">
<path d="M504.377 297.6C501.617 297.6 499.077 297.18 496.757 296.34C494.437 295.46 492.597 294.28 491.237 292.8C489.877 291.32 489.197 289.7 489.197 287.94C489.197 287.14 489.477 286.5 490.037 286.02C490.637 285.5 491.417 285.22 492.377 285.18C493.017 288.02 494.377 290.18 496.457 291.66C498.537 293.14 501.217 293.88 504.497 293.88C507.857 293.88 510.557 293.1 512.597 291.54C514.677 289.98 515.717 287.94 515.717 285.42C515.717 283.94 515.337 282.68 514.577 281.64C513.857 280.6 512.657 279.68 510.977 278.88C509.297 278.04 506.977 277.24 504.017 276.48C500.577 275.56 497.877 274.6 495.917 273.6C493.957 272.56 492.537 271.4 491.657 270.12C490.817 268.8 490.397 267.18 490.397 265.26C490.397 261.9 491.637 259.26 494.117 257.34C496.597 255.38 500.017 254.4 504.377 254.4C508.177 254.4 511.337 255.3 513.857 257.1C516.417 258.86 518.137 261.36 519.017 264.6C518.497 265.12 517.697 265.38 516.617 265.38C515.497 265.38 514.677 264.84 514.157 263.76C513.277 262 511.937 260.6 510.137 259.56C508.377 258.52 506.457 258 504.377 258C501.217 258 498.817 258.62 497.177 259.86C495.537 261.1 494.717 262.9 494.717 265.26C494.717 266.46 495.017 267.48 495.617 268.32C496.217 269.12 497.217 269.86 498.617 270.54C500.017 271.22 501.997 271.92 504.557 272.64C508.837 273.84 512.057 274.98 514.217 276.06C516.417 277.14 517.957 278.36 518.837 279.72C519.717 281.08 520.157 282.86 520.157 285.06C520.157 287.58 519.517 289.8 518.237 291.72C516.957 293.6 515.117 295.06 512.717 296.1C510.357 297.1 507.577 297.6 504.377 297.6ZM601.194 264L588.414 299.52C587.294 302.68 585.874 304.98 584.154 306.42C582.474 307.9 580.334 308.64 577.734 308.64C576.214 308.64 575.014 308.4 574.134 307.92C573.254 307.48 572.814 306.88 572.814 306.12C572.814 305.32 573.154 304.68 573.834 304.2C574.234 304.48 574.834 304.72 575.634 304.92C576.474 305.12 577.294 305.22 578.094 305.22C579.734 305.22 581.134 304.5 582.294 303.06C583.494 301.62 584.514 299.42 585.354 296.46L573.594 264H577.914L587.454 290.58L596.874 264H601.194ZM682.275 289.32C682.275 291.76 682.295 293.42 682.335 294.3C682.415 295.14 682.575 295.9 682.815 296.58C681.855 297.06 680.815 297.3 679.695 297.3C679.095 297.3 678.695 296.88 678.495 296.04C678.295 295.16 678.195 293.44 678.195 290.88V274.62C678.195 271.82 677.675 269.8 676.635 268.56C675.595 267.28 673.915 266.64 671.595 266.64C667.995 266.64 664.315 268.42 660.555 271.98V297H656.475V275.22C656.475 269.3 656.235 265.78 655.755 264.66C657.035 264.06 658.055 263.76 658.815 263.76C659.975 263.76 660.555 264.92 660.555 267.24V267.78C662.395 266.26 664.235 265.16 666.075 264.48C667.955 263.76 669.935 263.4 672.015 263.4C675.455 263.4 678.015 264.34 679.695 266.22C681.415 268.06 682.275 270.88 682.275 274.68V289.32ZM754.656 297.6C749.816 297.6 746.036 296.08 743.316 293.04C740.636 290 739.296 285.76 739.296 280.32C739.296 276.88 739.896 273.9 741.096 271.38C742.336 268.82 744.096 266.86 746.376 265.5C748.656 264.1 751.336 263.4 754.416 263.4C758.096 263.4 761.116 264.34 763.476 266.22C765.876 268.06 767.276 270.58 767.676 273.78C767.316 273.94 766.816 274.1 766.176 274.26C765.576 274.42 765.076 274.5 764.676 274.5C764.276 274.5 763.976 274.4 763.776 274.2C763.616 273.96 763.436 273.48 763.236 272.76C762.796 270.88 761.796 269.42 760.236 268.38C758.676 267.3 756.736 266.76 754.416 266.76C752.256 266.76 750.336 267.32 748.656 268.44C747.016 269.56 745.736 271.16 744.816 273.24C743.936 275.28 743.496 277.64 743.496 280.32C743.496 284.56 744.496 287.94 746.496 290.46C748.536 292.98 751.256 294.24 754.656 294.24C757.256 294.24 759.476 293.64 761.316 292.44C763.156 291.2 764.536 289.4 765.456 287.04C766.016 287.04 766.476 287.28 766.836 287.76C767.236 288.24 767.436 288.8 767.436 289.44C767.436 290.84 766.836 292.18 765.636 293.46C764.476 294.7 762.896 295.7 760.896 296.46C758.936 297.22 756.856 297.6 754.656 297.6Z" fill="#4A6872"/>
<path d="M213.734 86.4C213.734 87.84 213.514 88.8 213.074 89.28C212.674 89.76 211.854 90 210.614 90H188.594V48H213.674V51.6H192.914V66.72H210.794V70.32H192.914V86.4H213.734ZM294.348 57C293.868 63.16 292.688 68.92 290.808 74.28C288.928 79.6 286.228 84.84 282.708 90H278.808C275.288 84.84 272.588 79.6 270.708 74.28C268.828 68.92 267.648 63.16 267.168 57H271.248C271.808 62.8 272.828 67.96 274.308 72.48C275.828 76.96 277.988 81.32 280.788 85.56C283.588 81.32 285.728 76.96 287.208 72.48C288.688 67.96 289.708 62.8 290.268 57H294.348ZM375.729 71.16C375.729 72.08 375.689 73 375.609 73.92H351.729C351.809 78.08 352.729 81.32 354.489 83.64C356.289 85.96 358.769 87.12 361.929 87.12C364.089 87.12 365.909 86.7 367.389 85.86C368.909 85.02 370.169 83.68 371.169 81.84C371.449 81.32 371.869 81.06 372.429 81.06C373.069 81.06 373.949 81.44 375.069 82.2C374.189 84.8 372.569 86.86 370.209 88.38C367.849 89.86 365.089 90.6 361.929 90.6C359.009 90.6 356.449 89.92 354.249 88.56C352.089 87.16 350.429 85.18 349.269 82.62C348.109 80.02 347.529 76.96 347.529 73.44C347.529 68.12 348.849 63.96 351.489 60.96C354.129 57.92 357.749 56.4 362.349 56.4C366.549 56.4 369.829 57.7 372.189 60.3C374.549 62.9 375.729 66.52 375.729 71.16ZM371.529 70.68C371.529 63.48 368.409 59.88 362.169 59.88C359.129 59.88 356.729 60.8 354.969 62.64C353.209 64.48 352.169 67.16 351.849 70.68H371.529ZM458.504 82.32C458.504 84.76 458.524 86.42 458.564 87.3C458.644 88.14 458.804 88.9 459.044 89.58C458.084 90.06 457.044 90.3 455.924 90.3C455.324 90.3 454.924 89.88 454.724 89.04C454.524 88.16 454.424 86.44 454.424 83.88V67.62C454.424 64.82 453.904 62.8 452.864 61.56C451.824 60.28 450.144 59.64 447.824 59.64C444.224 59.64 440.544 61.42 436.784 64.98V90H432.704V68.22C432.704 62.3 432.464 58.78 431.984 57.66C433.264 57.06 434.284 56.76 435.044 56.76C436.204 56.76 436.784 57.92 436.784 60.24V60.78C438.624 59.26 440.464 58.16 442.304 57.48C444.184 56.76 446.164 56.4 448.244 56.4C451.684 56.4 454.244 57.34 455.924 59.22C457.644 61.06 458.504 63.88 458.504 67.68V82.32ZM533.645 85.98C533.925 86.18 534.145 86.48 534.305 86.88C534.505 87.24 534.605 87.62 534.605 88.02C534.605 88.78 534.285 89.32 533.645 89.64C532.365 90.28 530.705 90.6 528.665 90.6C526.065 90.6 523.985 89.9 522.425 88.5C520.865 87.06 520.085 85.14 520.085 82.74V60.24H513.845V57H520.085V48H524.165V57H532.805V60.24H524.165V81.96C524.165 85.32 525.605 87 528.485 87C530.325 87 532.045 86.66 533.645 85.98Z" fill="#4A6872"/>
<path fill-rule="evenodd" clip-rule="evenodd" d="M255.275 172.162C243.102 168.309 230.304 164.228 216.79 159.918L121.554 129.547C121.028 129.379 120.465 129.67 120.297 130.196C120.13 130.722 120.42 131.285 120.946 131.453L216.182 161.824L216.339 161.873C228.795 165.846 240.646 169.625 251.962 173.211C253.071 172.859 254.175 172.51 255.275 172.162ZM260.253 175.833C359.757 207.246 417.382 222.998 485 222.998C561.988 222.998 626.02 202.578 753.662 161.873L753.818 161.824L849.054 131.453C849.58 131.285 849.871 130.722 849.703 130.196C849.535 129.67 848.972 129.379 848.446 129.547L753.21 159.918C625.379 200.683 561.645 220.998 485 220.998C418.322 220.998 361.415 205.623 263.577 174.784C262.474 175.132 261.366 175.482 260.253 175.833Z" fill="#4A6872"/>
<path fill-rule="evenodd" clip-rule="evenodd" d="M216.79 188.077C344.621 147.312 408.355 126.997 485 126.997C551.678 126.997 608.585 142.372 706.423 173.211C707.526 172.863 708.634 172.514 709.747 172.162C610.243 140.749 552.618 124.997 485 124.997C408.012 124.997 343.98 145.417 216.339 186.122L216.182 186.172L120.946 216.543C120.42 216.71 120.13 217.273 120.297 217.799C120.465 218.325 121.028 218.616 121.554 218.448L216.79 188.077ZM718.038 174.785C716.929 175.136 715.825 175.486 714.725 175.834C726.898 179.686 739.696 183.767 753.21 188.077L848.446 218.448C848.972 218.616 849.535 218.325 849.703 217.799C849.871 217.273 849.58 216.71 849.054 216.543L753.818 186.172L753.661 186.122C741.205 182.15 729.354 178.37 718.038 174.785Z" fill="#4A6872"/>
<line x1="849" y1="299" x2="849" y2="49" stroke="#4A6872" stroke-width="2"/>
</svg>
